<?xml version="1.0" encoding="UTF-8" standalone="no"?>
<!-- Created with Inkscape (http://www.inkscape.org/) -->
<svg xmlns:ns0="http://ns.adobe.com/SaveForWeb/1.0/" xmlns:ns="http://ns.adobe.com/Variables/1.0/" xmlns:dc="http://purl.org/dc/elements/1.1/" xmlns:cc="http://creativecommons.org/ns#" xmlns:rdf="http://www.w3.org/1999/02/22-rdf-syntax-ns#" xmlns:svg="http://www.w3.org/2000/svg" xmlns="http://www.w3.org/2000/svg" xmlns:sodipodi="http://sodipodi.sourceforge.net/DTD/sodipodi-0.dtd" xmlns:inkscape="http://www.inkscape.org/namespaces/inkscape" version="1.1" width="615.50275" height="828.5578" viewBox="0 0 615.50273 828.55781" id="svg2" xml:space="preserve" style="overflow:visible" inkscape:version="0.48.2 r9819" sodipodi:docname="Antikythera_mechanism-frontview-corrected-again-labels.svg"><sodipodi:namedview pagecolor="#ffffff" bordercolor="#42f01c" borderopacity="1" objecttolerance="10" gridtolerance="10" guidetolerance="10" inkscape:pageopacity="0" inkscape:pageshadow="2" inkscape:window-width="980" inkscape:window-height="1177" id="namedview96" showgrid="false" fit-margin-left="1" fit-margin-top="1" fit-margin-right="1" fit-margin-bottom="1" inkscape:showpageshadow="false" inkscape:zoom="1.1808083" inkscape:cx="307.75137" inkscape:cy="414.27891" inkscape:window-x="620" inkscape:window-y="1" inkscape:window-maximized="0" inkscape:current-layer="svg2" units="mm"/><defs id="defs175"><marker inkscape:stockid="Arrow1Lstart" orient="auto" refY="0.0" refX="0.0" id="Arrow1Lstart" style="overflow:visible"><path id="path4378" d="M 0.0,0.0 L 5.0,-5.0 L -12.5,0.0 L 5.0,5.0 L 0.0,0.0 z " style="fill-rule:evenodd;stroke:#000000;stroke-width:1.0pt;marker-start:none" transform="scale(0.8) translate(12.5,0)"/></marker>
		
		
		
		
		
		
		
		
		
		
		
		
		
		
		
		
		
		
	
			
			
			
			
			
			
			
			
			
			
			
			
			
			
			
		
			
			
			
			
			
			
			
		
			
			
			
			
		
			
			
			
			
		
			
			
			
		
			
			
			
			
			
		
			
			
			
			
		
			
			
			
			
			
		
			
			
			
		
			
			
			
		
			
			
		
			
			
			
		
			
			
			
		</defs>
	<metadata id="metadata4">
		<ns:variableSets>
			<ns:variableSet locked="none" varSetName="binding1">
				<ns:variables/>
				<ns:sampleDataSets/>
			</ns:variableSet>
		</ns:variableSets>
		<ns0:sfw>
			<ns0:slices/>
			<ns0:sliceSourceBounds bottomLeftOrigin="true" height="192.383" width="152.52" x="230.24" y="299.309"/>
		</ns0:sfw>
	<rdf:RDF><cc:Work rdf:about=""><dc:format>image/svg+xml</dc:format><dc:type rdf:resource="http://purl.org/dc/dcmitype/StillImage"/><dc:title/></cc:Work></rdf:RDF></metadata>
	
<path style="fill:none;stroke:#666666;stroke-width:1;stroke-linecap:butt;stroke-linejoin:miter;stroke-miterlimit:4;stroke-opacity:1;stroke-dasharray:8.00000021, 2.00000005, 1.00000003, 2.00000005;stroke-dashoffset:0" d="m 286.78745,14.083276 0,809.465204" id="path3122" inkscape:connector-curvature="0" sodipodi:nodetypes="cc"/><path style="fill:none;stroke:#666666;stroke-width:1;stroke-linecap:butt;stroke-linejoin:miter;stroke-miterlimit:4;stroke-opacity:1;stroke-dasharray:8.00000042, 2.0000001, 1.00000006, 2.0000001;stroke-dashoffset:0;overflow:visible" d="m 161.71655,13.713976 0,809.465104" id="path3122-4" inkscape:connector-curvature="0" sodipodi:nodetypes="cc"/><path style="fill:none;stroke:#666666;stroke-width:1;stroke-linecap:butt;stroke-linejoin:miter;stroke-miterlimit:4;stroke-opacity:1;stroke-dasharray:8.00000063, 2.00000015, 1.00000009, 2.00000015;stroke-dashoffset:0;overflow:visible" d="m 81.928204,141.84628 415.523586,0" id="path3122-4-9" inkscape:connector-curvature="0" sodipodi:nodetypes="cc"/><path style="fill:none;stroke:#666666;stroke-width:1;stroke-linecap:butt;stroke-linejoin:miter;stroke-miterlimit:4;stroke-opacity:1;stroke-dasharray:8.00000084, 2.0000002, 1.00000012, 2.0000002;stroke-dashoffset:0;overflow:visible" d="m 222.54027,743.32898 130.01768,0" id="path3122-4-9-4" inkscape:connector-curvature="0" sodipodi:nodetypes="cc"/><g transform="translate(2.62303,69.583976)" id="layer1" style="display:none"/><g id="g4118" transform="translate(2.5433114,11.757876)"><path d="m 412.97316,553.66226 a 52.395365,53.529807 0 1 0 -104.79073,0 52.395365,53.529807 0 0 0 104.79073,0 z" id="path3671" style="fill:none;stroke:#000000;stroke-width:1.19570875;stroke-miterlimit:4;stroke-dasharray:none" inkscape:connector-curvature="0"/><path d="m 412.86463,551.30958 a 52.39536,53.529803 0 1 0 -104.79072,0 52.39536,53.529803 0 0 0 104.79072,0 z" id="path3673" style="fill:none;stroke:#000000;stroke-width:1.19570875;stroke-miterlimit:4;stroke-dasharray:none" inkscape:connector-curvature="0"/><path d="m 372.92368,593.69982 a 3.143725,3.2117916 0 1 0 -6.28745,0 3.143725,3.2117916 0 0 0 6.28745,0 z" id="path3727" style="fill:#000000;fill-opacity:1;stroke:#000000;stroke-width:1.19570875;stroke-miterlimit:4;stroke-dasharray:none" inkscape:connector-curvature="0"/><path d="m 372.86368,551.30958 a 12.394411,12.662769 0 1 0 -24.78881,0 12.394411,12.662769 0 0 0 24.78881,0 z" id="path3729" style="fill:none;stroke:#000000;stroke-width:1.79356313;stroke-miterlimit:4;stroke-dasharray:none" inkscape:connector-curvature="0"/><path d="m 365.6445,555.65156 a 4.8014652,4.9054246 0 1 0 -9.60292,0 4.8014652,4.9054246 0 0 0 9.60292,0 z" id="path3733" style="fill:#000000;fill-opacity:1;stroke:#000000;stroke-width:0.59785438" inkscape:connector-curvature="0"/><rect width="9.976325" height="21.217667" x="251.87053" y="638.20435" transform="matrix(0.98223295,-0.18766573,0.18005627,0.98365631,0,0)" id="rect4558" style="fill:none;stroke:#000000;stroke-width:1.19572663;stroke-miterlimit:4;stroke-opacity:1;stroke-dasharray:none"/></g><g id="g4078" transform="translate(2.5433114,11.757876)"><path d="m 231.73031,384.22823 c 0,-6.08 4.92,-11 11,-11 6.08,0 11,4.92 11,11 0,6.076 -4.92,11 -11,11 -6.08,0 -11,-4.924 -11,-11 z" id="path43" style="fill:none;stroke:#808080;stroke-width:1.41732287;stroke-miterlimit:4;stroke-dasharray:none;overflow:visible" inkscape:connector-curvature="0"/><path d="m 244.73031,451.22823 c 0,-6.08 4.92,-11 11.00001,-11 6.08,0 11,4.92 11,11 0,6.076 -4.92,11 -11,11 -6.08001,0 -11.00001,-4.924 -11.00001,-11 z" id="path45" style="fill:none;stroke:#808080;stroke-width:1.41732287;stroke-miterlimit:4;stroke-dasharray:none;overflow:visible" inkscape:connector-curvature="0"/><path d="m 312.73032,439.22823 c 0,-6.08 4.924,-11 11,-11 6.076,0 11,4.92 11,11 0,6.076 -4.924,11 -11,11 -6.076,0 -11,-4.924 -11,-11 z" id="path47" style="fill:none;stroke:#808080;stroke-width:1.41732287;stroke-miterlimit:4;stroke-dasharray:none;overflow:visible" inkscape:connector-curvature="0"/><path d="m 300.73032,372.22823 c 0,-6.08 4.924,-11 11,-11 6.076,0 11,4.92 11,11 0,6.076 -4.924,11 -11,11 -6.076,0 -11,-4.924 -11,-11 z" id="path49" style="fill:none;stroke:#808080;stroke-width:1.41732287;stroke-miterlimit:4;stroke-dasharray:none;overflow:visible" inkscape:connector-curvature="0"/><path d="m 550.37972,352.6261 h 38 v 101 h -34" id="path23" style="fill:none;stroke:#808080;stroke-width:1.41732287;stroke-miterlimit:4;stroke-dasharray:none;overflow:visible" inkscape:connector-curvature="0"/><path d="m 608.70612,412.6261 -21.14008,0" id="path25" style="fill:none;stroke:#808080;stroke-width:1.42000008;stroke-miterlimit:4;stroke-dasharray:none;overflow:visible" inkscape:connector-curvature="0" sodipodi:nodetypes="cc"/><path d="m 608.64517,392.48731 -20.35381,0" id="path27" style="fill:none;stroke:#808080;stroke-width:1.42000008;stroke-miterlimit:4;stroke-dasharray:none;overflow:visible" inkscape:connector-curvature="0" sodipodi:nodetypes="cc"/><path d="m 72.712077,589.39239 -34.00001,25 -14.999999,-17 33.999999,-26" id="path19" style="fill:none;stroke:#808080;stroke-width:1.41732287;stroke-miterlimit:4;stroke-dasharray:none;overflow:visible" inkscape:connector-curvature="0"/><path d="m 52.708644,268.41501 -37,-27 -13.9999998,20 38.9999998,28" id="path21" style="fill:none;stroke:#808080;stroke-width:1.41732287;stroke-miterlimit:4;stroke-dasharray:none;overflow:visible" inkscape:connector-curvature="0"/><path d="m 13.708644,258.41501 c 0,-2.208 1.788,-4 4,-4 2.212001,0 4,1.792 4,4 0,2.208 -1.787999,4 -4,4 -2.212,0 -4,-1.792 -4,-4 z" id="path33" style="stroke:#808080;stroke-width:1.41732287;stroke-miterlimit:4;stroke-dasharray:none;overflow:visible" inkscape:connector-curvature="0"/><path d="m 24.788644,265.41501 c 0,-2.164 1.752,-3.92 3.92,-3.92 2.164,0 3.92,1.756 3.92,3.92 0,2.164 -1.756,3.916 -3.92,3.916 -2.168,0.004 -3.92,-1.748 -3.92,-3.916 z" id="path35" style="fill:none;stroke:#808080;stroke-width:1.41732287;stroke-miterlimit:4;stroke-dasharray:none;overflow:visible" inkscape:connector-curvature="0"/><path d="m 608.32274,392.4873 0.057,20.13879" id="path4483" style="fill:none;stroke:#808080;stroke-width:1.42000008;stroke-linecap:square;stroke-linejoin:miter;stroke-miterlimit:4;stroke-opacity:1;stroke-dasharray:none" inkscape:connector-curvature="0"/><g id="g4067"><path inkscape:connector-curvature="0" style="fill:none;stroke:#000000;stroke-width:1.41732287;stroke-miterlimit:4;stroke-dasharray:none;overflow:visible" id="path41" d="m 213.37972,411.6901 c 0,-38.104 30.892,-69 69,-69 38.104,0 69,30.896 69,69 0,38.108 -30.896,69 -69,69 -38.108,0 -69,-30.896 -69,-69 z"/><path inkscape:connector-curvature="0" style="fill:none;stroke:#000000;stroke-width:1.41732287;stroke-miterlimit:4;stroke-dasharray:none;overflow:visible" id="path51" d="m 245.34772,412.6261 c 0,-20.988 17.012,-38 38,-38 20.988,0 38,17.012 38,38 0,20.988 -17.012,38 -38,38 -20.988,0 -38,-17.008 -38,-38 z"/><path inkscape:connector-curvature="0" style="stroke:#000000;stroke-width:0.35433072;stroke-miterlimit:4;stroke-dasharray:none;display:inline;overflow:visible" id="path53" d="m 277.37972,410.6261 c 0,-3.864 3.132,-7 7,-7 3.868,0 7,3.136 7,7 0,3.864 -3.132,7 -7,7 -3.868,0 -7,-3.136 -7,-7 z"/><g id="g4030"><path d="m 10.255719,416.1821 c 0,-150.96 122.384001,-273.332 273.336001,-273.332 150.956,0 273.332,122.372 273.332,273.332 0,150.96 -122.376,273.332 -273.332,273.332 -150.956,0 -273.336001,-122.376 -273.336001,-273.332 z" id="path9" style="fill:none;stroke:#000000;stroke-width:1.41732287;stroke-miterlimit:4;stroke-dasharray:none;display:inline;overflow:visible" inkscape:connector-curvature="0"/><path d="m 446.46772,569.9821 -1.932,0.804 c -40.276,41.932 -96.912,68.032 -159.644,68.032 -35.68,0 -69.388,-8.44 -99.24,-23.436 l -0.5,0.44 107.256,-153.18 1.136,0.252 152.924,107.088" id="path11" style="fill:none;stroke:#000000;stroke-width:1.41732287;stroke-miterlimit:4;stroke-dasharray:none;display:inline;overflow:visible" inkscape:connector-curvature="0"/><path d="m 86.379718,317.9581 149.444002,104.528 -0.368,0.616 -107.092,152.948 0.992,-1.092 c -40.624002,-40.128 -65.800002,-95.86 -65.800002,-157.476 0,-36.416 8.792,-70.776 24.38,-101.08" id="path13" style="fill:none;stroke:#000000;stroke-width:1.41732287;stroke-miterlimit:4;stroke-dasharray:none;display:inline;overflow:visible" inkscape:connector-curvature="0"/><path d="m 332.81972,404.9341 103.56,-147.64 1.296,0.044 c 42.24,40.308 68.552,97.156 68.552,160.148 0,34.02 -7.676,66.248 -21.392,95.052 m -152.08,-106.824 153.484,107.472" id="path15" style="fill:none;stroke:#000000;stroke-width:1.41732287;stroke-miterlimit:4;stroke-dasharray:none;display:inline;overflow:visible" inkscape:connector-curvature="0"/><path d="m 275.78772,365.8221 -149.408,-103.864 m 148.328,105.1 105.004,-150.428 -1.156,0.252 c -28.444,-13.304 -60.184,-20.74 -93.668,-20.74 -61.712,0 -117.524,25.248 -157.664,65.992" id="path17" style="fill:none;stroke:#000000;stroke-width:1.41732287;stroke-miterlimit:4;stroke-dasharray:none;display:inline;overflow:visible" inkscape:connector-curvature="0"/></g></g></g><g transform="translate(12.474653,81.178176)" id="layer4" style="display:inline"><path d="m 203.13265,443.35848 c 0,-25.956 21.048,-47 47,-47 25.952,0 47,21.044 47,47 0,25.956 -21.048,47 -47,47 -25.952,0 -47,-21.04 -47,-47 z" id="path119" style="fill:none;stroke:#000000;stroke-width:1.41732287;stroke-miterlimit:4;stroke-dasharray:none;overflow:visible" inkscape:connector-curvature="0"/><path d="m 217.13265,443.35848 c 0,-18.776 15.228,-34 34,-34 18.772,0 34,15.224 34,34 0,18.772 -15.228,34 -34,34 -18.772,0 -34,-15.224 -34,-34 z" id="path121" style="fill:none;stroke:#000000;stroke-width:1.41732287;stroke-miterlimit:4;stroke-dasharray:none;overflow:visible" inkscape:connector-curvature="0"/><path d="m 244.44465,442.35848 c 0,-3.14 2.548,-5.684 5.688,-5.684 3.14,0 5.684,2.544 5.684,5.684 0,3.14 -2.544,5.684 -5.684,5.684 -3.14,0 -5.688,-2.54 -5.688,-5.684 z" id="path117" style="stroke:#000000;stroke-width:0.35433072;stroke-miterlimit:4;stroke-dasharray:none;display:inline;overflow:visible" inkscape:connector-curvature="0"/></g><g id="g3951" transform="translate(2.2837284,14.283476)"><path d="m 107.73972,576.1261 c 0,-75.188 60.952,-136.148 136.14,-136.148 75.192,0 136.148,60.956 136.148,136.148 0,75.188 -60.956,136.144 -136.148,136.144 -75.188,0.004 -136.14,-60.956 -136.14,-136.144 z" id="path109" style="fill:none;stroke:#000000;stroke-width:1.41732287;stroke-miterlimit:4;stroke-dasharray:none;overflow:visible" inkscape:connector-curvature="0"/><path d="m 221.22016,578.49726 c 0,-12.704 10.296,-23 23,-23 12.704,0 23,10.3 23,23 0,12.7 -10.296,23 -23,23 -12.704,0 -23,-10.296 -23,-23 z" id="path111" style="fill:none;stroke:#000000;stroke-width:1.41732287;stroke-miterlimit:4;stroke-dasharray:none;overflow:visible" inkscape:connector-curvature="0"/><path d="m 238.69172,578.6261 c 0,-3.14 2.548,-5.684 5.688,-5.684 3.14,0 5.684,2.544 5.684,5.684 0,3.14 -2.544,5.684 -5.684,5.684 -3.14,0 -5.688,-2.54 -5.688,-5.684 z" id="path107" style="stroke:#000000;stroke-width:0.35433072;stroke-miterlimit:4;stroke-dasharray:none;display:inline;overflow:visible" inkscape:connector-curvature="0"/></g><g id="g4134" transform="translate(2.5433114,11.757876)"><g id="g3917"><path inkscape:connector-curvature="0" style="fill:none;stroke:#000000;stroke-width:1.19570875;stroke-miterlimit:4;stroke-dasharray:none" id="path3653" d="m 398.34636,447.56388 a 52.395365,53.529807 0 1 0 -104.79073,0 52.395365,53.529807 0 0 0 104.79073,0 z"/><path inkscape:connector-curvature="0" style="fill:none;stroke:#000000;stroke-width:1.19570875;stroke-miterlimit:4;stroke-dasharray:none" id="path3655" d="m 396.04096,447.56388 a 50.089964,51.174491 0 1 0 -100.17992,0 50.089964,51.174491 0 0 0 100.17992,0 z"/><path inkscape:connector-curvature="0" style="fill:none;stroke:#000000;stroke-width:1.19599998;stroke-miterlimit:4;stroke-dasharray:none" id="path3657" d="m 379.48403,447.56388 a 33.533035,34.259078 0 1 0 -67.06607,0 33.533035,34.259078 0 0 0 67.06607,0 z"/><path inkscape:connector-curvature="0" style="fill:none;stroke:#000000;stroke-width:1.79356313;stroke-miterlimit:4;stroke-dasharray:none" id="path3711" d="m 354.33426,447.56388 a 8.383265,8.564776 0 1 0 -16.76653,0 8.383265,8.564776 0 0 0 16.76653,0 z"/><rect style="fill:#000000;fill-opacity:1;stroke:#000000;stroke-width:1" id="rect4537" y="443.21384" x="341.75827" height="8.7987051" width="8.3152618"/></g><path d="m 129.89411,445.2989 c 0,-119.18023 96.61121,-215.79144 215.79143,-215.79144 119.18023,0 215.79144,96.61121 215.79144,215.79144 0,119.17622 -96.61121,215.79143 -215.79144,215.79143 -119.18022,0 -215.79143,-96.61521 -215.79143,-215.79143 z" id="path59" style="fill:none;stroke:#000000;stroke-width:1.41713524;stroke-miterlimit:4;stroke-dasharray:none;overflow:visible" inkscape:connector-curvature="0"/><path d="m 145.84677,444.54953 c 0,-110.0772 89.22757,-199.30082 199.30081,-199.30082 110.07325,0 199.30082,89.22362 199.30082,199.30082 0,110.07324 -89.22757,199.30081 -199.30082,199.30081 -110.07324,0 -199.30081,-89.22757 -199.30081,-199.30081 z" id="path61" style="fill:none;stroke:#000000;stroke-width:1.39838409;stroke-miterlimit:4;stroke-dasharray:none;overflow:visible" inkscape:connector-curvature="0"/></g><g id="g3894" transform="translate(-26.517652,18.142976)"><path d="m 425.38481,691.80611 a 33.533037,34.25908 0 1 0 -67.06607,0 33.533037,34.25908 0 0 0 67.06607,0 z" id="path3657-7-6" style="fill:none;stroke:#000000;stroke-width:1.19599998;stroke-miterlimit:4;stroke-opacity:1;stroke-dasharray:none;display:inline;overflow:visible" inkscape:connector-curvature="0"/><path d="m 338.11798,691.37908 c 0,-30.376 24.624,-55 55,-55 30.376,0 55,24.624 55,55 0,30.376 -24.624,55 -55,55 -30.376,0 -55,-24.624 -55,-55 z" id="path129" style="fill:none;stroke:#000000;stroke-width:1.41732287;stroke-miterlimit:4;stroke-dasharray:none;overflow:visible" inkscape:connector-curvature="0"/><path d="m 387.42998,691.37908 c 0,-3.14 2.548,-5.684 5.688,-5.684 3.14,0 5.684,2.544 5.684,5.684 0,3.14 -2.544,5.684 -5.684,5.684 -3.14,0 -5.688,-2.54 -5.688,-5.684 z" id="path127" style="stroke:#000000;stroke-width:0.35433072;stroke-miterlimit:4;stroke-dasharray:none;display:inline;overflow:visible" inkscape:connector-curvature="0"/></g><g transform="translate(-20.532324,70.163576)" id="layer8" style="display:inline"><path d="m 254.87392,673.64771 c 0,-28.724 23.28,-52 52,-52 28.72,0 52,23.276 52,52 0,28.72 -23.28,52 -52,52 -28.72,0 -52,-23.28 -52,-52 z" id="path147" style="fill:none;stroke:#000000;stroke-width:1.41732287;stroke-miterlimit:4;stroke-dasharray:none;overflow:visible" inkscape:connector-curvature="0"/><path d="m 286.54442,673.81535 c 0,-11.1574 9.05164,-20.20454 20.20455,-20.20454 11.1574,0 20.20454,9.04714 20.20454,20.20454 0,11.15291 -9.04714,20.20455 -20.20454,20.20455 -11.15291,0 -20.20455,-9.04715 -20.20455,-20.20455 z" id="path149" style="fill:none;stroke:#000000;stroke-width:1.59090912;stroke-miterlimit:4;stroke-dasharray:none;overflow:visible" inkscape:connector-curvature="0"/><path d="m 301.01865,673.70105 c 0,-3.14 2.548,-5.684 5.688,-5.684 3.14,0 5.684,2.544 5.684,5.684 0,3.14 -2.544,5.684 -5.684,5.684 -3.14,0 -5.688,-2.54 -5.688,-5.684 z" id="path145" style="stroke:#000000;stroke-width:0.35433072;stroke-miterlimit:4;stroke-dasharray:none;display:inline;overflow:visible" inkscape:connector-curvature="0"/></g><g transform="translate(-24.755826,59.604776)" id="layer9" style="display:inline"><path d="m 187.80296,710.70105 c 0,-29.824 24.176,-54 54,-54 29.824,0 54,24.176 54,54 0,29.824 -24.176,54 -54,54 -29.824,0 -54,-24.172 -54,-54 z" id="path167" style="fill:none;stroke:#000000;stroke-width:1.41732287;stroke-miterlimit:4;stroke-dasharray:none;overflow:visible" inkscape:connector-curvature="0"/><path d="m 224.80296,710.70105 c 0,-9.392 7.608,-17 17,-17 9.392,0 17,7.608 17,17 0,9.388 -7.608,17 -17,17 -9.392,0 -17,-7.612 -17,-17 z" id="path169" style="fill:none;stroke:#000000;stroke-width:1.41732287;stroke-miterlimit:4;stroke-dasharray:none;overflow:visible" inkscape:connector-curvature="0"/><path d="m 236.11496,710.70105 c 0,-3.14 2.548,-5.684 5.688,-5.684 3.14,0 5.684,2.544 5.684,5.684 0,3.14 -2.544,5.684 -5.684,5.684 -3.14,0 -5.688,-2.54 -5.688,-5.684 z" id="path165" style="stroke:#000000;stroke-width:0.35433072;stroke-miterlimit:4;stroke-dasharray:none;display:inline;overflow:visible" inkscape:connector-curvature="0"/></g><g transform="translate(-26.33964,62.772476)" id="layer10" style="display:inline"><path d="m 137.9956,673.22729 c 0,-27.068 21.936,-49 49,-49 27.064,0 49,21.936 49,49 0,27.064 -21.936,49 -49,49 -27.064,0 -49,-21.936 -49,-49 z" id="path159" style="fill:none;stroke:#000000;stroke-width:1.41732287;stroke-miterlimit:4;stroke-dasharray:none;overflow:visible" inkscape:connector-curvature="0"/><path d="m 182.3076,673.22729 c 0,-3.14 2.548,-5.684 5.688,-5.684 3.14,0 5.684,2.544 5.684,5.684 0,3.14 -2.544,5.684 -5.684,5.684 -3.14,0 -5.688,-2.54 -5.688,-5.684 z" id="path157" style="stroke:#000000;stroke-width:0.35433072;stroke-miterlimit:4;stroke-dasharray:none;overflow:visible" inkscape:connector-curvature="0"/></g><g transform="translate(11.790382,79.025476)" id="layer18" style="display:inline"/><g id="g3942" transform="translate(2.5433114,11.757876)"><path d="m 399.25591,349.96399 a 33.533036,34.259079 0 1 0 -67.06607,0 33.533036,34.259079 0 0 0 67.06607,0 z" id="path3657-7" style="fill:none;stroke:#000000;stroke-width:1.19599998;stroke-miterlimit:4;stroke-opacity:1;stroke-dasharray:none;display:inline;overflow:visible" inkscape:connector-curvature="0"/><g style="display:inline" id="layer19" transform="translate(9.2470706,67.267616)"><path inkscape:connector-curvature="0" style="stroke:#000000;stroke-width:0.35433072;stroke-miterlimit:4;stroke-dasharray:none;overflow:visible" id="path71" d="m 349.53816,282.55469 c 0,-3.864 3.132,-7 7,-7 3.868,0 7,3.136 7,7 0,3.864 -3.132,7 -7,7 -3.868,0 -7,-3.136 -7,-7 z"/><path inkscape:connector-curvature="0" style="fill:none;stroke:#000000;stroke-width:1.41732287;stroke-miterlimit:4;stroke-dasharray:none;overflow:visible" id="path73" d="m 300.30616,282.55469 c 0,-31.604 25.624,-57.232 57.232,-57.232 31.604,0 57.228,25.624 57.228,57.232 0,31.608 -25.624,57.232 -57.228,57.232 -31.608,0 -57.232,-25.624 -57.232,-57.232 z"/></g></g><g transform="translate(40.621426,63.157376)" id="layer20" style="display:inline"><path d="m 260.30707,155.89302 c 0,-3.48 2.812,-6.3 6.296,-6.3 3.476,0 6.296,2.82 6.296,6.3 0,3.48 -2.82,6.3 -6.296,6.3 -3.484,0 -6.296,-2.82 -6.296,-6.3 z" id="path79" style="stroke:#000000;stroke-width:0.35433072;stroke-miterlimit:4;stroke-dasharray:none;overflow:visible" inkscape:connector-curvature="0"/><path d="m 249.87112,155.56851 c 0,-9.392 7.608,-17 17,-17 9.392,0 17,7.608 17,17 0,9.388 -7.608,17 -17,17 -9.392,0 -17,-7.612 -17,-17 z" id="path81" style="fill:none;stroke:#000000;stroke-width:1.41732287;stroke-miterlimit:4;stroke-dasharray:none;overflow:visible" inkscape:connector-curvature="0"/><path d="m 170.85507,156.69302 c 0,-53.576 43.428,-96.999997 97,-96.999997 53.572,0 97,43.423997 97,96.999997 0,53.572 -43.428,97 -97,97 -53.572,0 -97,-43.428 -97,-97 z" id="path83" style="fill:none;stroke:#000000;stroke-width:1.41732287;stroke-miterlimit:4;stroke-dasharray:none;overflow:visible" inkscape:connector-curvature="0"/><path d="m 241.05044,155.7425 c 0,-14.35873 11.64327,-26.002 26.00197,-26.002 14.35873,0 26.002,11.64327 26.002,26.002 0,14.35591 -11.64327,26.00197 -26.002,26.00197 -14.3587,0 -26.00197,-11.64327 -26.00197,-26.00197 z" id="path101-1" style="fill:none;stroke:#000000;stroke-width:0.99603301;stroke-miterlimit:4;stroke-dasharray:none;overflow:visible" inkscape:connector-curvature="0"/></g><g transform="matrix(-1,0,0,1,484.67724,66.225476)" id="layer23" style="display:inline"><path d="m 70.81567,76.015923 c 0,-3.476 2.812,-6.296 6.296,-6.296 3.476,0 6.296003,2.82 6.296003,6.296 0,3.48 -2.820003,6.3 -6.296003,6.3 -3.484,0 -6.296,-2.82 -6.296,-6.3 z" id="path93-5" style="stroke:#000000;stroke-width:0.35433072;stroke-miterlimit:4;stroke-dasharray:none;display:inline;overflow:visible" inkscape:connector-curvature="0"/><path d="m 3.3778697,77.213023 c 0,-40.912401 33.1666003,-74.079001 74.0790003,-74.079001 40.9124,0 74.079,33.1666 74.079,74.079001 0,40.912397 -33.1666,74.078997 -74.079,74.078997 -40.9124,0 -74.0790003,-33.1614 -74.0790003,-74.078997 z" id="path95-7" style="fill:none;stroke:#000000;stroke-width:1.84199762;stroke-miterlimit:4;stroke-dasharray:none;display:inline;overflow:visible" inkscape:connector-curvature="0"/></g><g transform="matrix(-1,0,0,1,516.17706,-4.918024)" id="layer22" style="display:inline"><path d="m 157.85993,82.26423 c 0,-3.476 2.812,-6.296 6.296,-6.296 3.476,0 6.296,2.82 6.296,6.296 0,3.48 -2.82,6.3 -6.296,6.3 -3.484,0 -6.296,-2.82 -6.296,-6.3 z" id="path93" style="stroke:#000000;stroke-width:0.35433072;stroke-miterlimit:4;stroke-dasharray:none;overflow:visible" inkscape:connector-curvature="0"/><path d="m 90.422133,83.461333 c 0,-40.912404 33.166597,-74.079003 74.078997,-74.079003 40.9124,0 74.079,33.166599 74.079,74.079003 0,40.912397 -33.1666,74.078997 -74.079,74.078997 -40.9124,0 -74.078997,-33.1614 -74.078997,-74.078997 z" id="path95" style="fill:none;stroke:#000000;stroke-width:1.84199762;stroke-miterlimit:4;stroke-dasharray:none;overflow:visible" inkscape:connector-curvature="0"/><path d="m 152.22088,82.181486 c 0,-6.629527 5.37025,-11.999781 11.99978,-11.999781 6.62952,0 11.99978,5.370254 11.99978,11.999781 0,6.6267 -5.37026,11.99977 -11.99978,11.99977 -6.62953,0 -11.99978,-5.37307 -11.99978,-11.99977 z" id="path81-7-7" style="fill:none;stroke:#000000;stroke-width:1.39999998;stroke-miterlimit:4;stroke-dasharray:none;overflow:visible" inkscape:connector-curvature="0"/></g><g id="g5541" transform="translate(2.5433103,2.543276)"><path d="m 278.05475,140.24152 c 0,-3.476 2.812,-6.296 6.296,-6.296 3.476,0 6.296,2.82 6.296,6.296 0,3.48001 -2.82,6.3 -6.296,6.3 -3.484,0 -6.296,-2.81999 -6.296,-6.3 z" id="path87" style="stroke:#000000;stroke-width:0.35433072;stroke-miterlimit:4;stroke-dasharray:none;overflow:visible" inkscape:connector-curvature="0"/><path d="m 224.49875,140.44153 c 0,-33.68801 27.312,-61.000005 61,-61.000005 33.688,0 61,27.311995 61,61.000005 0,33.68799 -27.312,60.99999 -61,60.99999 -33.688,0 -61,-27.312 -61,-60.99999 z" id="path89" style="fill:none;stroke:#000000;stroke-width:1.41732287;stroke-miterlimit:4;stroke-dasharray:none;overflow:visible" inkscape:connector-curvature="0"/><path d="m 267.1278,140.94405 c 0,-9.392 7.608,-17 17,-17 9.392,0 17,7.608 17,17 0,9.388 -7.608,16.99999 -17,16.99999 -9.392,0 -17,-7.61199 -17,-16.99999 z" id="path81-7" style="fill:none;stroke:#000000;stroke-width:1.41700006;stroke-miterlimit:4;stroke-dasharray:none;overflow:visible" inkscape:connector-curvature="0"/><path d="m 222.21019,140.24705 c 0,-34.95343 28.33791,-63.291342 63.29133,-63.291342 34.95343,0 63.29135,28.337912 63.29135,63.291342 0,34.9534 -28.33792,63.29132 -63.29135,63.29132 -34.95342,0 -63.29133,-28.33792 -63.29133,-63.29132 z" id="path89-9" style="fill:none;stroke:#000000;stroke-width:1.41732287;stroke-miterlimit:4;stroke-dasharray:none;overflow:visible" inkscape:connector-curvature="0"/></g><path inkscape:connector-curvature="0" style="stroke:#000000;stroke-width:0.35433072;stroke-miterlimit:4;stroke-dasharray:none;display:inline;overflow:visible" id="path93-5-4" d="m 167.96374,142.10518 c 0,-3.476 -2.812,-6.296 -6.296,-6.296 -3.476,0 -6.296,2.82 -6.296,6.296 0,3.48 2.82,6.3 6.296,6.3 3.484,0 6.296,-2.82 6.296,-6.3 z"/><path inkscape:connector-curvature="0" style="fill:none;stroke:#000000;stroke-width:1.84199762;stroke-miterlimit:4;stroke-dasharray:none;display:inline;overflow:visible" id="path95-7-6" d="m 226.02629,140.56578 c 0,-35.3896 -28.68942,-64.079004 -64.07901,-64.079004 -35.38961,0 -64.078994,28.689404 -64.078994,64.079004 0,35.3896 28.689384,64.079 64.078994,64.079 35.38959,0 64.07901,-28.6849 64.07901,-64.079 z"/><path style="fill:none;stroke:#666666;stroke-width:1;stroke-linecap:butt;stroke-linejoin:miter;stroke-miterlimit:4;stroke-opacity:1;stroke-dasharray:8.00000106, 2.00000025, 1.00000015, 2.00000025;stroke-dashoffset:0;overflow:visible" d="m 96.540116,736.16878 130.017674,0" id="path3122-4-9-4-1" inkscape:connector-curvature="0" sodipodi:nodetypes="cc"/><path style="fill:none;stroke:#666666;stroke-width:1;stroke-linecap:butt;stroke-linejoin:miter;stroke-miterlimit:4;stroke-opacity:1;stroke-dasharray:8.00000043, 2.0000001, 1.00000006, 2.0000001;stroke-dashoffset:0;overflow:visible" d="m 407.47786,52.837676 0,186.064504" id="path3122-2" inkscape:connector-curvature="0" sodipodi:nodetypes="cc"/><text xml:space="preserve" style="font-size:24px;font-style:normal;font-weight:normal;text-align:center;line-height:125%;letter-spacing:0px;word-spacing:0px;text-anchor:middle;fill:#000000;fill-opacity:1;stroke:none;overflow:visible;font-family:Sans" x="580.41101" y="424.07843" id="text3079" sodipodi:linespacing="125%"><tspan sodipodi:role="line" id="tspan3081" x="580.41101" y="424.07843">A</tspan></text>
<text xml:space="preserve" style="font-size:24px;font-style:normal;font-weight:normal;text-align:center;line-height:125%;letter-spacing:0px;word-spacing:0px;text-anchor:middle;fill:#000000;fill-opacity:1;stroke:none;overflow:visible;font-family:Sans" x="301.7717" y="418.82108" id="text3079-7" sodipodi:linespacing="125%"><tspan sodipodi:role="line" id="tspan3081-7" x="301.7717" y="418.82108">B</tspan></text>
<text xml:space="preserve" style="font-size:24px;font-style:normal;font-weight:normal;text-align:center;line-height:125%;letter-spacing:0px;word-spacing:0px;text-anchor:middle;fill:#000000;fill-opacity:1;stroke:none;overflow:visible;font-family:Sans" x="275.48495" y="541.84296" id="text3079-4" sodipodi:linespacing="125%"><tspan sodipodi:role="line" id="tspan3081-8" x="275.48495" y="541.84296">C</tspan></text>
<text xml:space="preserve" style="font-size:24px;font-style:normal;font-weight:normal;text-align:center;line-height:125%;letter-spacing:0px;word-spacing:0px;text-anchor:middle;fill:#000000;fill-opacity:1;stroke:none;overflow:visible;font-family:Sans" x="260.76437" y="609.13702" id="text3079-1" sodipodi:linespacing="125%"><tspan sodipodi:role="line" id="tspan3081-4" x="260.76437" y="609.13702">D</tspan></text>
<text xml:space="preserve" style="font-size:24px;font-style:normal;font-weight:normal;text-align:center;line-height:125%;letter-spacing:0px;word-spacing:0px;text-anchor:middle;fill:#000000;fill-opacity:1;stroke:none;overflow:visible;font-family:Sans" x="363.80835" y="476.65189" id="text3079-10" sodipodi:linespacing="125%"><tspan sodipodi:role="line" id="tspan3081-5" x="363.80835" y="476.65189">E</tspan></text>
<text xml:space="preserve" style="font-size:24px;font-style:normal;font-weight:normal;text-align:center;line-height:125%;letter-spacing:0px;word-spacing:0px;text-anchor:middle;fill:#000000;fill-opacity:1;stroke:none;overflow:visible;font-family:Sans" x="380.63187" y="727.95306" id="text3079-0" sodipodi:linespacing="125%"><tspan sodipodi:role="line" id="tspan3081-50" x="380.63187" y="727.95306">F</tspan></text>
<text xml:space="preserve" style="font-size:24px;font-style:normal;font-weight:normal;text-align:center;line-height:125%;letter-spacing:0px;word-spacing:0px;text-anchor:middle;fill:#000000;fill-opacity:1;stroke:none;overflow:visible;font-family:Sans" x="301.7717" y="738.46771" id="text3079-8" sodipodi:linespacing="125%"><tspan sodipodi:role="line" id="tspan3081-58" x="301.7717" y="738.46771">G</tspan></text>
<text xml:space="preserve" style="font-size:24px;font-style:normal;font-weight:normal;text-align:center;line-height:125%;letter-spacing:0px;word-spacing:0px;text-anchor:middle;fill:#000000;fill-opacity:1;stroke:none;overflow:visible;font-family:Sans" x="232.37471" y="802.60736" id="text3079-6" sodipodi:linespacing="125%"><tspan sodipodi:role="line" id="tspan3081-2" x="232.37471" y="802.60736">H</tspan></text>
<text xml:space="preserve" style="font-size:24px;font-style:normal;font-weight:normal;text-align:center;line-height:125%;letter-spacing:0px;word-spacing:0px;text-anchor:middle;fill:#000000;fill-opacity:1;stroke:none;overflow:visible;font-family:Sans" x="149.30862" y="761.6001" id="text3079-2" sodipodi:linespacing="125%"><tspan sodipodi:role="line" id="tspan3081-3" x="149.30862" y="761.6001">I</tspan></text>
<text xml:space="preserve" style="font-size:24px;font-style:normal;font-weight:normal;text-align:center;line-height:125%;letter-spacing:0px;word-spacing:0px;text-anchor:middle;fill:#000000;fill-opacity:1;stroke:none;overflow:visible;font-family:Sans" x="348.03632" y="592.31354" id="text3079-45" sodipodi:linespacing="125%"><tspan sodipodi:role="line" id="tspan3081-33" x="348.03632" y="592.31354">K</tspan></text>
<text xml:space="preserve" style="font-size:24px;font-style:normal;font-weight:normal;text-align:center;line-height:125%;letter-spacing:0px;word-spacing:0px;text-anchor:middle;fill:#000000;fill-opacity:1;stroke:none;overflow:visible;font-family:Sans" x="381.68332" y="380.96817" id="text3079-108" sodipodi:linespacing="125%"><tspan sodipodi:role="line" id="tspan3081-1" x="381.68332" y="380.96817">L</tspan></text>
<text xml:space="preserve" style="font-size:24px;font-style:normal;font-weight:normal;text-align:center;line-height:125%;letter-spacing:0px;word-spacing:0px;text-anchor:middle;fill:#000000;fill-opacity:1;stroke:none;overflow:visible;font-family:Sans" x="335.41867" y="234.81395" id="text3079-17" sodipodi:linespacing="125%"><tspan sodipodi:role="line" id="tspan3081-0" x="335.41867" y="234.81395">M</tspan></text>
<text xml:space="preserve" style="font-size:24px;font-style:normal;font-weight:normal;text-align:center;line-height:125%;letter-spacing:0px;word-spacing:0px;text-anchor:middle;fill:#000000;fill-opacity:1;stroke:none;overflow:visible;font-family:Sans" x="421.63919" y="164.36549" id="text3079-9" sodipodi:linespacing="125%"><tspan sodipodi:role="line" id="tspan3081-51" x="421.63919" y="164.36549">Q</tspan></text>
<text xml:space="preserve" style="font-size:24px;font-style:normal;font-weight:normal;text-align:center;line-height:125%;letter-spacing:0px;word-spacing:0px;text-anchor:middle;fill:#000000;fill-opacity:1;stroke:none;overflow:visible;font-family:Sans" x="371.16864" y="68.681801" id="text3079-23" sodipodi:linespacing="125%"><tspan sodipodi:role="line" id="tspan3081-31" x="371.16864" y="68.681801">P</tspan></text>
<text xml:space="preserve" style="font-size:24px;font-style:normal;font-weight:normal;text-align:center;line-height:125%;letter-spacing:0px;word-spacing:0px;text-anchor:middle;fill:#000000;fill-opacity:1;stroke:none;overflow:visible;font-family:Sans" x="303.87463" y="176.98314" id="text3079-3" sodipodi:linespacing="125%"><tspan sodipodi:role="line" id="tspan3081-37" x="303.87463" y="176.98314">N</tspan></text>
<text xml:space="preserve" style="font-size:24px;font-style:normal;font-weight:normal;text-align:center;line-height:125%;letter-spacing:0px;word-spacing:0px;text-anchor:middle;fill:#000000;fill-opacity:1;stroke:none;overflow:visible;font-family:Sans" x="179.80124" y="133.87289" id="text3079-42" sodipodi:linespacing="125%"><tspan sodipodi:role="line" id="tspan3081-04" x="179.80124" y="133.87289">O</tspan></text>
<text xml:space="preserve" style="font-size:24px;font-style:normal;font-weight:normal;text-align:center;line-height:125%;letter-spacing:0px;word-spacing:0px;text-anchor:middle;fill:#000000;fill-opacity:1;stroke:none;overflow:visible;font-family:Sans" x="347.03174" y="27.591888" id="text3079-42-0" sodipodi:linespacing="125%"><tspan sodipodi:role="line" id="tspan3081-04-1" x="347.03174" y="27.591888">p1</tspan></text>
<text xml:space="preserve" style="font-size:24px;font-style:normal;font-weight:normal;text-align:center;line-height:125%;letter-spacing:0px;word-spacing:0px;text-anchor:middle;fill:#000000;fill-opacity:1;stroke:none;overflow:visible;font-family:Sans" x="331.25967" y="63.341846" id="text3079-42-0-3" sodipodi:linespacing="125%"><tspan sodipodi:role="line" id="tspan3081-04-1-8" x="331.25967" y="63.341846">p2</tspan></text>
<text xml:space="preserve" style="font-size:24px;font-style:normal;font-weight:normal;text-align:center;line-height:125%;letter-spacing:0px;word-spacing:0px;text-anchor:middle;fill:#000000;fill-opacity:1;stroke:none;overflow:visible;font-family:Sans" x="463.74481" y="169.54024" id="text3079-42-0-31" sodipodi:linespacing="125%"><tspan sodipodi:role="line" id="tspan3081-04-1-3" x="463.74481" y="169.54024">q1</tspan></text>
<text xml:space="preserve" style="font-size:24px;font-style:normal;font-weight:normal;text-align:center;line-height:125%;letter-spacing:0px;word-spacing:0px;text-anchor:middle;fill:#000000;fill-opacity:1;stroke:none;overflow:visible;font-family:Sans" x="265.01712" y="180.05493" id="text3079-42-0-4" sodipodi:linespacing="125%"><tspan sodipodi:role="line" id="tspan3081-04-1-2" x="265.01712" y="180.05493">n2</tspan></text>
<text xml:space="preserve" style="font-size:24px;font-style:normal;font-weight:normal;text-align:center;line-height:125%;letter-spacing:0px;word-spacing:0px;text-anchor:middle;fill:#000000;fill-opacity:1;stroke:none;overflow:visible;font-family:Sans" x="110.61418" y="264.32843" id="text3079-42-0-8" sodipodi:linespacing="125%" transform="matrix(0.73220639,-0.68108282,0.68108282,0.73220639,0,0)"><tspan sodipodi:role="line" id="tspan3081-04-1-4" x="110.61418" y="264.32843">n1/3</tspan></text>
<text xml:space="preserve" style="font-size:24px;font-style:normal;font-weight:normal;text-align:center;line-height:125%;letter-spacing:0px;word-spacing:0px;text-anchor:middle;fill:#000000;fill-opacity:1;stroke:none;overflow:visible;font-family:Sans" x="118.8629" y="136.94469" id="text3079-42-0-1" sodipodi:linespacing="125%"><tspan sodipodi:role="line" id="tspan3081-04-1-9" x="118.8629" y="136.94469">o1</tspan></text>
<text xml:space="preserve" style="font-size:24px;font-style:normal;font-weight:normal;text-align:center;line-height:125%;letter-spacing:0px;word-spacing:0px;text-anchor:middle;fill:#000000;fill-opacity:1;stroke:none;overflow:visible;font-family:Sans" x="260.81125" y="243.1431" id="text3079-42-0-2" sodipodi:linespacing="125%"><tspan sodipodi:role="line" id="tspan3081-04-1-28" x="260.81125" y="243.1431">m3</tspan></text>
<text xml:space="preserve" style="font-size:24px;font-style:normal;font-weight:normal;text-align:center;line-height:125%;letter-spacing:0px;word-spacing:0px;text-anchor:middle;fill:#000000;fill-opacity:1;stroke:none;overflow:visible;font-family:Sans" x="329.10391" y="290.58676" id="text3079-42-0-9" sodipodi:linespacing="125%"><tspan sodipodi:role="line" id="tspan3081-04-1-24" x="329.10391" y="290.58676">m2</tspan></text>
<text xml:space="preserve" style="font-size:24px;font-style:normal;font-weight:normal;text-align:center;line-height:125%;letter-spacing:0px;word-spacing:0px;text-anchor:middle;fill:#000000;fill-opacity:1;stroke:none;overflow:visible;font-family:Sans" x="197.7231" y="261.0181" id="text3079-42-0-92" sodipodi:linespacing="125%"><tspan sodipodi:role="line" id="tspan3081-04-1-7" x="197.7231" y="261.0181">m1</tspan></text>
<text xml:space="preserve" style="font-size:24px;font-style:normal;font-weight:normal;text-align:center;line-height:125%;letter-spacing:0px;word-spacing:0px;text-anchor:middle;fill:#000000;fill-opacity:1;stroke:none;overflow:visible;font-family:Sans" x="62.492737" y="251.96404" id="text3079-42-0-47" sodipodi:linespacing="125%"><tspan sodipodi:role="line" id="tspan3081-04-1-29" x="62.492737" y="251.96404">b1</tspan></text>
<text xml:space="preserve" style="font-size:24px;font-style:normal;font-weight:normal;text-align:center;line-height:125%;letter-spacing:0px;word-spacing:0px;text-anchor:middle;fill:#000000;fill-opacity:1;stroke:none;overflow:visible;font-family:Sans" x="579.40649" y="359.8562" id="text3079-42-0-0" sodipodi:linespacing="125%"><tspan sodipodi:role="line" id="tspan3081-04-1-283" x="579.40649" y="359.8562">a1</tspan></text>
<text xml:space="preserve" style="font-size:24px;font-style:normal;font-weight:normal;text-align:center;line-height:125%;letter-spacing:0px;word-spacing:0px;text-anchor:middle;fill:#000000;fill-opacity:1;stroke:none;overflow:visible;font-family:Sans" x="411.17136" y="386.14291" id="text3079-42-0-5" sodipodi:linespacing="125%"><tspan sodipodi:role="line" id="tspan3081-04-1-75" x="411.17136" y="386.14291">l1</tspan></text>
<text xml:space="preserve" style="font-size:24px;font-style:normal;font-weight:normal;text-align:center;line-height:125%;letter-spacing:0px;word-spacing:0px;text-anchor:middle;fill:#000000;fill-opacity:1;stroke:none;overflow:visible;font-family:Sans" x="436.40662" y="402.96643" id="text3079-42-0-38" sodipodi:linespacing="125%"><tspan sodipodi:role="line" id="tspan3081-04-1-82" x="436.40662" y="402.96643">l2</tspan></text>
<text xml:space="preserve" style="font-size:24px;font-style:normal;font-weight:normal;text-align:center;line-height:125%;letter-spacing:0px;word-spacing:0px;text-anchor:middle;fill:#000000;fill-opacity:1;stroke:none;overflow:visible;font-family:Sans" x="215.59807" y="384.03998" id="text3079-42-0-16" sodipodi:linespacing="125%"><tspan sodipodi:role="line" id="tspan3081-04-1-25" x="215.59807" y="384.03998">b2</tspan></text>
<text xml:space="preserve" style="font-size:24px;font-style:normal;font-weight:normal;text-align:center;line-height:125%;letter-spacing:0px;word-spacing:0px;text-anchor:middle;fill:#000000;fill-opacity:1;stroke:none;overflow:visible;font-family:Sans" x="266.0686" y="418.73846" id="text3079-42-0-6" sodipodi:linespacing="125%"><tspan sodipodi:role="line" id="tspan3081-04-1-90" x="266.0686" y="418.73846">b3</tspan></text>
<text xml:space="preserve" style="font-size:24px;font-style:normal;font-weight:normal;text-align:center;line-height:125%;letter-spacing:0px;word-spacing:0px;text-anchor:middle;fill:#000000;fill-opacity:1;stroke:none;overflow:visible;font-family:Sans" x="445.86984" y="445.02518" id="text3079-42-0-37" sodipodi:linespacing="125%"><tspan sodipodi:role="line" id="tspan3081-04-1-6" x="445.86984" y="445.02518">e1/2</tspan></text>
<text xml:space="preserve" style="font-size:24px;font-style:normal;font-weight:normal;text-align:center;line-height:125%;letter-spacing:0px;word-spacing:0px;text-anchor:middle;fill:#000000;fill-opacity:1;stroke:none;overflow:visible;font-family:Sans" x="417.48019" y="504.95895" id="text3079-42-0-60" sodipodi:linespacing="125%"><tspan sodipodi:role="line" id="tspan3081-04-1-73" x="417.48019" y="504.95895">e5/6</tspan></text>
<text xml:space="preserve" style="font-size:24px;font-style:normal;font-weight:normal;text-align:center;line-height:125%;letter-spacing:0px;word-spacing:0px;text-anchor:middle;fill:#000000;fill-opacity:1;stroke:none;overflow:visible;font-family:Sans" x="441.66397" y="554.37799" id="text3079-42-0-12" sodipodi:linespacing="125%"><tspan sodipodi:role="line" id="tspan3081-04-1-39" x="441.66397" y="554.37799">k1/2</tspan></text>
<text xml:space="preserve" style="font-size:24px;font-style:normal;font-weight:normal;text-align:center;line-height:125%;letter-spacing:0px;word-spacing:0px;text-anchor:middle;fill:#000000;fill-opacity:1;stroke:none;overflow:visible;font-family:Sans" x="248.19362" y="516.52509" id="text3079-42-0-36" sodipodi:linespacing="125%"><tspan sodipodi:role="line" id="tspan3081-04-1-48" x="248.19362" y="516.52509">c1</tspan></text>
<text xml:space="preserve" style="font-size:24px;font-style:normal;font-weight:normal;text-align:center;line-height:125%;letter-spacing:0px;word-spacing:0px;text-anchor:middle;fill:#000000;fill-opacity:1;stroke:none;overflow:visible;font-family:Sans" x="199.82602" y="525.98834" id="text3079-42-0-23" sodipodi:linespacing="125%"><tspan sodipodi:role="line" id="tspan3081-04-1-0" x="199.82602" y="525.98834">c2</tspan></text>
<text xml:space="preserve" style="font-size:24px;font-style:normal;font-weight:normal;text-align:center;line-height:125%;letter-spacing:0px;word-spacing:0px;text-anchor:middle;fill:#000000;fill-opacity:1;stroke:none;overflow:visible;font-family:Sans" x="284.99503" y="593.28241" id="text3079-42-0-94" sodipodi:linespacing="125%"><tspan sodipodi:role="line" id="tspan3081-04-1-09" x="284.99503" y="593.28241">d1</tspan></text>
<text xml:space="preserve" style="font-size:24px;font-style:normal;font-weight:normal;text-align:center;line-height:125%;letter-spacing:0px;word-spacing:0px;text-anchor:middle;fill:#000000;fill-opacity:1;stroke:none;overflow:visible;font-family:Sans" x="128.32613" y="617.46619" id="text3079-42-0-99" sodipodi:linespacing="125%"><tspan sodipodi:role="line" id="tspan3081-04-1-83" x="128.32613" y="617.46619">d2</tspan></text>
<text xml:space="preserve" style="font-size:24px;font-style:normal;font-weight:normal;text-align:center;line-height:125%;letter-spacing:0px;word-spacing:0px;text-anchor:middle;fill:#000000;fill-opacity:1;stroke:none;overflow:visible;font-family:Sans" x="108.3482" y="706.84106" id="text3079-42-0-42" sodipodi:linespacing="125%"><tspan sodipodi:role="line" id="tspan3081-04-1-5" x="108.3482" y="706.84106">i1</tspan></text>
<text xml:space="preserve" style="font-size:24px;font-style:normal;font-weight:normal;text-align:center;line-height:125%;letter-spacing:0px;word-spacing:0px;text-anchor:middle;fill:#000000;fill-opacity:1;stroke:none;overflow:visible;font-family:Sans" x="198.77457" y="803.57623" id="text3079-42-0-11" sodipodi:linespacing="125%"><tspan sodipodi:role="line" id="tspan3081-04-1-53" x="198.77457" y="803.57623">h2</tspan></text>
<text xml:space="preserve" style="font-size:24px;font-style:normal;font-weight:normal;text-align:center;line-height:125%;letter-spacing:0px;word-spacing:0px;text-anchor:middle;fill:#000000;fill-opacity:1;stroke:none;overflow:visible;font-family:Sans" x="165.12755" y="824.60559" id="text3079-42-0-14" sodipodi:linespacing="125%"><tspan sodipodi:role="line" id="tspan3081-04-1-46" x="165.12755" y="824.60559">h1</tspan></text>
<text xml:space="preserve" style="font-size:22.00578117px;font-style:normal;font-weight:normal;text-align:center;line-height:125%;letter-spacing:0px;word-spacing:0px;text-anchor:middle;fill:#000000;fill-opacity:1;stroke:none;overflow:visible;font-family:Sans" x="342.42581" y="685.69623" id="text3079-42-0-84" sodipodi:linespacing="125%" transform="scale(0.87649447,1.1409085)"><tspan sodipodi:role="line" id="tspan3081-04-1-70" x="342.42581" y="685.69623">g2</tspan></text>
<text xml:space="preserve" style="font-size:24px;font-style:normal;font-weight:normal;text-align:center;line-height:125%;letter-spacing:0px;word-spacing:0px;text-anchor:middle;fill:#000000;fill-opacity:1;stroke:none;overflow:visible;font-family:Sans" x="326.00232" y="803.57623" id="text3079-42-0-96" sodipodi:linespacing="125%"><tspan sodipodi:role="line" id="tspan3081-04-1-93" x="326.00232" y="803.57623">g1</tspan></text>
<text xml:space="preserve" style="font-size:24px;font-style:normal;font-weight:normal;text-align:center;line-height:125%;letter-spacing:0px;word-spacing:0px;text-anchor:middle;fill:#000000;fill-opacity:1;stroke:none;overflow:visible;font-family:Sans" x="372.267" y="759.41449" id="text3079-42-0-85" sodipodi:linespacing="125%"><tspan sodipodi:role="line" id="tspan3081-04-1-80" x="372.267" y="759.41449">f2</tspan></text>
<text xml:space="preserve" style="font-size:24px;font-style:normal;font-weight:normal;text-align:center;line-height:125%;letter-spacing:0px;word-spacing:0px;text-anchor:middle;fill:#000000;fill-opacity:1;stroke:none;overflow:visible;font-family:Sans" x="416.42871" y="767.82623" id="text3079-42-0-39" sodipodi:linespacing="125%"><tspan sodipodi:role="line" id="tspan3081-04-1-85" x="416.42871" y="767.82623">f1</tspan></text>
<text xml:space="preserve" style="font-size:24px;font-style:normal;font-weight:normal;text-align:center;line-height:125%;letter-spacing:0px;word-spacing:0px;text-anchor:middle;fill:#000000;fill-opacity:1;stroke:none;overflow:visible;font-family:Sans" x="116.20654" y="438.78726" id="text3079-42-0-23-3" sodipodi:linespacing="125%"><tspan sodipodi:role="line" id="tspan3081-04-1-0-9" x="116.20654" y="438.78726">e3</tspan></text>
<text xml:space="preserve" style="font-size:24px;font-style:normal;font-weight:normal;text-align:center;line-height:125%;letter-spacing:0px;word-spacing:0px;text-anchor:middle;fill:#000000;fill-opacity:1;stroke:none;overflow:visible;font-family:Sans" x="168.78" y="439.83875" id="text3079-42-0-23-0" sodipodi:linespacing="125%"><tspan sodipodi:role="line" id="tspan3081-04-1-0-4" x="168.78" y="439.83875">e4</tspan></text>
<path style="fill:none;stroke:#000000;stroke-width:1px;stroke-linecap:butt;stroke-linejoin:miter;stroke-opacity:1;marker-start:url(#Arrow1Lstart)" d="m 381.7878,443.0525 35.3163,-2.974" id="path3603" inkscape:connector-curvature="0" transform="translate(-1.18965e-5,0)"/><path style="fill:none;stroke:#000000;stroke-width:1px;stroke-linecap:butt;stroke-linejoin:miter;stroke-opacity:1;marker-start:url(#Arrow1Lstart)" d="m 307.06594,238.96146 0,57.24958 44.61006,0" id="path3605" inkscape:connector-curvature="0" transform="translate(-1.18965e-5,0)"/></svg>